<svg width="149" height="57" viewBox="0 0 149 57" fill="none" xmlns="http://www.w3.org/2000/svg">
<path d="M69.7805 38.7471V20.3568H63.7988V18.1248H78.337V20.3568H72.1112V38.7471H69.7805Z" fill="#D9B76F"/>
<path d="M84.4987 39.038C83.197 39.0514 81.9201 38.6873 80.827 37.9912C79.7156 37.2821 78.815 36.2955 78.2169 35.132C77.5631 33.8595 77.2343 32.4492 77.2591 31.0233C77.2591 29.4713 77.5885 28.0965 78.2473 26.8988C78.864 25.7447 79.7765 24.7694 80.8941 24.0695C82.0088 23.38 83.302 23.022 84.6184 23.0384C85.3908 23.0313 86.1591 23.1508 86.8916 23.392C87.5667 23.6153 88.1987 23.949 88.761 24.3792C89.2999 24.7911 89.7651 25.2889 90.1371 25.852C90.5025 26.4055 90.7602 27.0211 90.897 27.6674L90.2393 27.3436L90.3287 23.3669H92.5732V38.7472H90.3031V34.9748L90.9002 34.5913C90.7519 35.2026 90.4793 35.778 90.0988 36.2826C89.6936 36.8299 89.2046 37.3119 88.6493 37.7114C87.4446 38.5777 85.9904 39.0424 84.4987 39.038ZM85.0079 36.916C85.9884 36.9312 86.953 36.6712 87.7888 36.1663C88.6151 35.6567 89.2828 34.9328 89.7188 34.0742C90.1987 33.1288 90.4386 32.083 90.418 31.0264C90.4383 29.9733 90.1966 28.9313 89.7141 27.9912C89.2722 27.137 88.6057 26.415 87.784 25.9007C86.9427 25.3999 85.9783 25.1352 84.9952 25.1352C84.012 25.1352 83.0476 25.3999 82.2063 25.9007C81.3915 26.4188 80.7306 27.1401 80.2906 27.9912C79.8093 28.9317 79.5682 29.9735 79.5882 31.0264C79.5707 32.0719 79.8066 33.1065 80.2763 34.0443C80.7061 34.9064 81.3689 35.6352 82.1919 36.1506C83.0355 36.6688 84.0138 36.9348 85.0079 36.916Z" fill="#D9B76F"/>
<path d="M95.2676 38.747L101.64 30.6474L102.986 32.2381L97.9607 38.747H95.2676ZM107.56 38.747L102.145 31.8844L101.875 31.5606L95.3841 23.3714H98.2257L103.551 30.1177L103.85 30.4997L110.372 38.747H107.56ZM104 31.2023L102.71 29.6414L107.256 23.3667H109.98L104 31.2023Z" fill="#D9B76F"/>
<path d="M114.741 20.0423C114.182 20.0423 113.756 19.8998 113.464 19.6148C113.315 19.46 113.2 19.277 113.125 19.0771C113.051 18.8771 113.018 18.6643 113.03 18.4516C113.019 18.2354 113.054 18.0195 113.131 17.8169C113.208 17.6142 113.326 17.4291 113.478 17.2727C113.777 16.9788 114.197 16.8311 114.735 16.8311C115.272 16.8311 115.692 16.9741 115.991 17.2586C116.289 17.5431 116.439 17.9408 116.439 18.4516C116.448 18.6631 116.413 18.8742 116.336 19.0718C116.259 19.2694 116.141 19.4494 115.991 19.6006C115.699 19.8851 115.279 20.0423 114.741 20.0423ZM113.635 38.747V23.3667H115.87V38.747H113.635Z" fill="#D9B76F"/>
<path d="M126.319 39.0378C125.122 39.0378 124.111 38.7973 123.286 38.3163C122.45 37.8256 121.791 37.0889 121.402 36.2101C120.977 35.2869 120.764 34.1379 120.764 32.7631V23.3667H123.037V32.3261C123.037 33.3667 123.181 34.2359 123.47 34.9338C123.722 35.5853 124.185 36.1374 124.787 36.5056C125.446 36.8772 126.197 37.0607 126.956 37.0353C128.177 37.0529 129.357 36.6019 130.246 35.7778C130.664 35.3847 131 34.9141 131.233 34.3931C131.472 33.8648 131.594 33.2926 131.592 32.7144V23.3667H133.836V38.747H131.614L131.525 35.5075L131.884 35.3314C131.634 36.0355 131.224 36.6745 130.687 37.2004C130.117 37.7682 129.442 38.2234 128.698 38.5411C127.949 38.8691 127.139 39.0383 126.319 39.0378Z" fill="#D9B76F"/>
<path d="M143.311 39.038C142.073 39.0581 140.847 38.8063 139.721 38.3008C138.734 37.8654 137.871 37.1977 137.208 36.3565L138.793 35.0016C139.346 35.6704 140.047 36.205 140.843 36.564C141.676 36.926 142.579 37.1067 143.49 37.0937C143.943 37.1009 144.396 37.0481 144.836 36.9365C145.212 36.8388 145.567 36.6742 145.883 36.4508C146.168 36.25 146.404 35.9877 146.571 35.6837C146.732 35.3847 146.814 35.0507 146.81 34.7124C146.81 34.0648 146.521 33.5246 145.943 33.0918C145.595 32.8713 145.224 32.6889 144.836 32.5479C144.268 32.3309 143.688 32.1472 143.099 31.9978C142.151 31.7435 141.222 31.4252 140.319 31.0453C139.672 30.7816 139.082 30.3962 138.584 29.9104C138.292 29.5705 138.064 29.1819 137.91 28.763C137.758 28.3272 137.682 27.869 137.687 27.4081C137.681 26.8053 137.819 26.2097 138.091 25.6696C138.367 25.1306 138.754 24.6542 139.227 24.2707C139.739 23.8559 140.328 23.5455 140.963 23.3575C141.665 23.1446 142.396 23.0386 143.131 23.0431C143.869 23.0449 144.604 23.1459 145.314 23.3433C146.02 23.5345 146.695 23.8218 147.319 24.1968C147.916 24.553 148.451 25.0003 148.905 25.5219L147.529 26.9947C147.147 26.6008 146.726 26.2459 146.272 25.9353C145.824 25.6267 145.336 25.3788 144.821 25.1981C143.885 24.879 142.873 24.8483 141.919 25.1101C141.544 25.2119 141.19 25.3762 140.872 25.5958C140.594 25.7899 140.368 26.0478 140.214 26.3471C140.064 26.6493 139.987 26.9819 139.991 27.3185C139.986 27.5938 140.047 27.8663 140.169 28.1138C140.292 28.3536 140.466 28.5647 140.679 28.7331C141.039 28.9925 141.437 29.196 141.86 29.3367C142.483 29.5591 143.117 29.7506 143.76 29.9104C144.519 30.1065 145.265 30.3479 145.994 30.6335C146.541 30.843 147.051 31.1358 147.505 31.5011C148.003 31.8457 148.4 32.3129 148.657 32.856C148.894 33.4056 149.01 33.9978 149 34.5945C149.013 35.4181 148.756 36.2239 148.268 36.8925C147.748 37.583 147.051 38.1254 146.248 38.4643C145.323 38.8615 144.321 39.0572 143.311 39.038Z" fill="#D9B76F"/>
<path d="M15.6421 4.79566C13.4556 4.79445 11.3219 5.45714 9.53185 6.69339C7.74179 7.92965 6.38244 9.67933 5.63908 11.704C4.89571 13.7286 4.8045 15.9297 5.37787 18.0072C5.95124 20.0847 7.16129 21.9376 8.84311 23.3134L14.4655 13.2914L13.1533 12.5919L15.9198 10.9038L18.6768 9.21563L18.779 12.4174L18.8811 15.6208L17.5561 14.9198L11.8762 25.0518C13.3332 25.5947 14.8936 25.8156 16.4469 25.6989C18.0002 25.5823 19.5084 25.1309 20.865 24.3768C22.2215 23.6227 23.3931 22.5842 24.2969 21.3349C25.2007 20.0855 25.8145 18.6559 26.095 17.1471C26.3755 15.6383 26.3158 14.0873 25.9201 12.6037C25.5244 11.1202 24.8024 9.74041 23.8051 8.56204C22.8079 7.38366 21.5598 6.4355 20.1492 5.78465C18.7385 5.1338 17.1999 4.79617 15.6421 4.79566Z" fill="#D9B76F"/>
<path d="M47.3898 11.3975H42.647L44.6201 19.4359H45.2395C45.2395 19.4359 45.3848 21.0407 43.7565 22.2652C43.1985 22.6083 42.5538 22.7903 41.8959 22.7903C41.238 22.7903 40.5933 22.6083 40.0353 22.2652C40.0353 22.2652 38.5076 21.212 38.5347 19.4359H39.1829L41.0762 11.3975H40.7234C40.7234 11.3975 37.4045 10.9071 37.5306 7.72262H39.1893C39.1893 7.72262 38.6944 9.7267 41.9254 9.8493H47.3898V5.89615C45.7692 5.08827 43.9653 4.70278 42.1504 4.77646C40.3354 4.85015 38.5699 5.38054 37.0223 6.31703C35.4747 7.25353 34.1966 8.56489 33.3101 10.126C32.4235 11.6871 31.958 13.4458 31.958 15.2344C31.958 17.023 32.4235 18.7817 33.3101 20.3428C34.1966 21.9039 35.4747 23.2152 37.0223 24.1517C38.5699 25.0882 40.3354 25.6186 42.1504 25.6923C43.9653 25.766 45.7692 25.3805 47.3898 24.5726V11.3975Z" fill="#031D38"/>
<path d="M49.2432 7.06348V23.3885C50.4852 22.4084 51.4877 21.166 52.1765 19.7532C52.8654 18.3404 53.223 16.7932 53.223 15.226C53.223 13.6588 52.8654 12.1116 52.1765 10.6988C51.4877 9.28595 50.4852 8.04358 49.2432 7.06348Z" fill="#031D38"/>
<path d="M39.9502 19.4387H43.8533L41.8802 11.4004H41.8403L39.9502 19.4387Z" fill="#031D38"/>
<path d="M15.6427 30.8516C13.3685 30.8518 11.1544 31.5702 9.32552 32.9011C7.49667 34.2321 6.14952 36.1054 5.48197 38.2459C4.81441 40.3865 4.86164 42.6814 5.61671 44.7936C6.37179 46.9057 7.7949 48.7238 9.67701 49.9807V41.463H12.7628V51.3922C13.1991 51.513 13.6427 51.6065 14.091 51.672V38.6573H17.1768V51.6736C17.6311 51.6089 18.0807 51.5149 18.5225 51.3922V36.0857H21.6147V49.9807C23.4968 48.7238 24.9199 46.9057 25.675 44.7936C26.4301 42.6814 26.4773 40.3865 25.8098 38.2459C25.1422 36.1054 23.795 34.2321 21.9662 32.9011C20.1374 31.5702 17.9232 30.8518 15.6491 30.8516H15.6427Z" fill="#031D38"/>
<path d="M40.0569 47.832H39.8973C39.557 47.8212 39.2339 47.6824 38.9946 47.4441C38.7552 47.2057 38.6178 46.8861 38.6106 46.551C38.601 44.998 38.6106 43.4451 38.6106 41.8921C38.6064 41.8281 38.6212 41.7643 38.6532 41.7085C38.6853 41.6527 38.7331 41.6072 38.791 41.5777C38.8488 41.5449 38.9156 41.5307 38.982 41.5372C39.0485 41.5437 39.1112 41.5705 39.1613 41.6139C39.4249 41.7971 39.7425 41.8894 40.0649 41.8764C41.757 41.8764 43.4492 41.8764 45.1429 41.8764H45.3377C45.3377 42.1986 45.3377 42.4973 45.3377 42.7975C45.3377 43.0977 45.4638 43.203 45.7512 43.2046H47.5646C47.9286 43.2046 48.034 43.1008 48.034 42.744V41.8764H48.2383C49.8954 41.8764 51.5529 41.8764 53.211 41.8764C53.2206 41.6941 53.2254 41.5101 53.2254 41.3247C53.2254 41.2869 53.2254 41.2508 53.2254 41.2146H48.0308C48.0308 41.103 48.0308 41.0103 48.0308 40.9176C48.0357 40.868 48.0292 40.818 48.0119 40.7712C47.9946 40.7244 47.9668 40.6821 47.9307 40.6472C47.8945 40.6124 47.8509 40.586 47.8031 40.5699C47.7552 40.5539 47.7043 40.5486 47.654 40.5545H45.7192C45.6678 40.5483 45.6155 40.5538 45.5666 40.5705C45.5176 40.5873 45.4731 40.6148 45.4366 40.6511C45.4001 40.6873 45.3725 40.7313 45.3559 40.7797C45.3393 40.8281 45.3342 40.8795 45.3409 40.9301C45.3409 41.0213 45.3409 41.1125 45.3409 41.2146H45.2116C43.4673 41.2146 41.7224 41.2146 39.9771 41.2146C39.7963 41.2179 39.6168 41.1851 39.4493 41.1182C39.2817 41.0512 39.1297 40.9516 39.0023 40.8253C38.8749 40.699 38.7748 40.5486 38.7081 40.3832C38.6413 40.2178 38.6092 40.0408 38.6138 39.8629C38.6138 39.2467 38.6313 38.629 38.6138 38.0144C38.6033 37.8231 38.6337 37.6317 38.703 37.4527C38.7723 37.2736 38.8791 37.1109 39.0163 36.9751C39.1535 36.8392 39.3182 36.7332 39.4996 36.664C39.6811 36.5947 39.8753 36.5637 40.0697 36.573C41.0881 36.5982 42.1082 36.573 43.1283 36.573H43.3263V35.9789C43.3263 35.1474 43.8994 34.5862 44.7439 34.5847C46.0465 34.5847 47.3502 34.5847 48.655 34.5847C48.7619 34.5814 48.8689 34.5887 48.9743 34.6067C49.2873 34.6654 49.569 34.8316 49.7693 35.0757C49.9695 35.3198 50.0753 35.6259 50.0678 35.9396C50.0678 36.1439 50.0678 36.3498 50.0678 36.5683H52.0856C51.0443 34.5528 49.3681 32.9236 47.3079 31.9244C45.2476 30.9252 42.9141 30.6099 40.6567 31.0255C38.3992 31.4412 36.3392 32.5656 34.7849 34.2303C33.2306 35.895 32.2656 38.0106 32.0345 40.2604C31.8033 42.5102 32.3183 44.7732 33.5025 46.7107C34.6866 48.6483 36.4762 50.1561 38.6034 51.0086C40.7305 51.861 43.0809 52.0122 45.3026 51.4396C47.5244 50.867 49.498 49.6013 50.9282 47.832H40.0569Z" fill="#D9B76F"/>
<path d="M44.6729 36.559H48.6957V35.9177H44.6729V36.559Z" fill="#D9B76F"/>
<path d="M45.7027 56.5418H12.5348C9.21137 56.5384 6.02507 55.2371 3.67508 52.9232C1.32509 50.6094 0.00338086 47.4721 0 44.1998V12.3404C0.00380337 9.06841 1.3257 5.93152 3.67564 3.618C6.02559 1.30449 9.21165 0.00332814 12.5348 0H45.7027C49.0257 0.00374331 52.2115 1.30504 54.5613 3.61846C56.9112 5.93188 58.2332 9.06854 58.2374 12.3404V44.1998C58.2336 47.4719 56.9118 50.609 54.5619 52.9227C52.212 55.2365 49.0259 56.538 45.7027 56.5418ZM12.5348 0.526562C9.35472 0.531968 6.30657 1.77852 4.05838 3.99302C1.8102 6.20751 0.545393 9.20928 0.541172 12.3404V44.1998C0.544552 47.333 1.81003 50.3369 4.05999 52.5525C6.30994 54.7682 9.36062 56.0146 12.5427 56.0183H45.7027C48.8848 56.0146 51.9355 54.7682 54.1854 52.5525C56.4354 50.3369 57.7009 47.333 57.7043 44.1998V12.3404C57.7 9.20792 56.4341 6.20496 54.1842 3.99024C51.9343 1.77553 48.8841 0.529889 45.7027 0.526562H12.5348Z" fill="#D9B76F"/>
</svg>
