<svg width="146" height="57" viewBox="0 0 146 57" fill="none" xmlns="http://www.w3.org/2000/svg">
<path d="M68.3676 38.5599V20.2583H62.5127V18.0371H76.7582V20.2583H70.6577V38.5599H68.3676Z" fill="#D9B76F"/>
<path d="M82.7962 38.8492C81.5208 38.8622 80.2697 38.4999 79.1985 37.8074C78.1094 37.1018 77.227 36.1199 76.641 34.9621C76.0003 33.6957 75.6782 32.2922 75.7025 30.8732C75.7025 29.3287 76.0252 27.9606 76.6707 26.7686C77.2751 25.6201 78.1691 24.6495 79.2642 23.953C80.3576 23.2684 81.6252 22.9137 82.9151 22.9316C83.672 22.9245 84.4248 23.0434 85.1426 23.2835C85.8067 23.5051 86.4286 23.8372 86.9821 24.2658C87.5095 24.6766 87.9651 25.1719 88.3305 25.7315C88.6887 26.2808 88.9417 26.8918 89.0767 27.5335L88.4322 27.2113L88.5214 23.2538H90.7191V38.5598H88.4838V34.8057L89.0688 34.424C88.9218 35.0331 88.6531 35.6061 88.2789 36.1087C87.8813 36.6533 87.4016 37.133 86.857 37.5306C85.6766 38.3926 84.2517 38.8552 82.79 38.8508L82.7962 38.8492ZM83.2952 36.7375C84.2564 36.7524 85.202 36.4936 86.0217 35.9913C86.8309 35.4841 87.4847 34.7638 87.9113 33.9093C88.3831 32.969 88.6198 31.9282 88.6011 30.8763C88.621 29.8283 88.3842 28.7913 87.9113 27.8558C87.4789 27.0057 86.8264 26.2872 86.0217 25.7753C85.1961 25.2755 84.2494 25.0112 83.2843 25.0112C82.3192 25.0112 81.3725 25.2755 80.5469 25.7753C79.748 26.2904 79.1003 27.0083 78.6698 27.8558C78.1969 28.7913 77.9601 29.8283 77.98 30.8763C77.9637 31.9167 78.1948 32.946 78.6542 33.8796C79.0753 34.7376 79.7248 35.4628 80.5312 35.9757C81.3594 36.4919 82.3196 36.7566 83.2952 36.7375Z" fill="#D9B76F"/>
<path d="M93.3486 38.5599L99.5931 30.4994L100.912 32.0824L95.9875 38.5599H93.3486ZM105.393 38.5599L100.09 31.7258L99.8277 31.4036L93.466 23.2539H96.2503L101.469 29.9676L101.761 30.3477L108.151 38.5599H105.393ZM101.905 31.0516L100.644 29.4983L105.101 23.2539H107.76L101.905 31.0516Z" fill="#D9B76F"/>
<path d="M112.431 19.9455C111.884 19.9455 111.466 19.8037 111.18 19.52C111.034 19.366 110.921 19.1839 110.848 18.9849C110.775 18.786 110.743 18.5742 110.754 18.3625C110.744 18.1474 110.778 17.9325 110.854 17.7308C110.929 17.5291 111.045 17.3449 111.194 17.1893C111.488 16.8963 111.898 16.7498 112.425 16.7498C112.951 16.7498 113.362 16.8916 113.656 17.1752C113.95 17.4584 114.095 17.8541 114.095 18.3625C114.104 18.573 114.069 18.783 113.994 18.9797C113.918 19.1763 113.803 19.3554 113.656 19.5059C113.368 19.799 112.96 19.9455 112.431 19.9455ZM111.347 38.5599V23.2538H113.537V38.5599H111.347Z" fill="#D9B76F"/>
<path d="M123.775 38.8493C122.602 38.8493 121.612 38.61 120.803 38.1313C119.983 37.6429 119.338 36.9098 118.957 36.0353C118.54 35.1165 118.331 33.9731 118.331 32.6049V23.2539H120.551V32.17C120.551 33.2056 120.693 34.0706 120.976 34.7651C121.223 35.4134 121.676 35.9628 122.265 36.3293C122.911 36.699 123.647 36.8815 124.391 36.8565C125.003 36.8651 125.61 36.7529 126.179 36.5264C126.711 36.3111 127.198 35.9981 127.615 35.6035C128.025 35.2127 128.354 34.7443 128.581 34.2254C128.816 33.6998 128.936 33.1303 128.933 32.5548V23.2539H131.133V38.5599H128.963L128.876 35.3361L129.228 35.1609C128.982 35.8615 128.581 36.4974 128.054 37.0207C127.496 37.5859 126.834 38.0388 126.105 38.355C125.372 38.6814 124.578 38.8498 123.775 38.8493Z" fill="#D9B76F"/>
<path d="M140.424 38.8492C139.212 38.8692 138.01 38.6186 136.906 38.1156C135.939 37.6823 135.094 37.0178 134.444 36.1806L135.998 34.8323C136.539 35.4975 137.226 36.0295 138.006 36.3871C138.823 36.7474 139.707 36.9272 140.6 36.9143C141.045 36.9215 141.489 36.8689 141.92 36.7579C142.288 36.6604 142.635 36.4966 142.944 36.2745C143.224 36.0747 143.455 35.8136 143.619 35.5112C143.776 35.2136 143.857 34.8812 143.853 34.5445C143.853 33.9 143.57 33.3624 143.004 32.9317C142.663 32.7125 142.3 32.5311 141.92 32.3905C141.364 32.1765 140.796 31.9952 140.219 31.8477C139.29 31.5932 138.379 31.2749 137.493 30.8951C136.856 30.6317 136.276 30.2464 135.786 29.761C135.501 29.4227 135.278 29.036 135.128 28.6191C134.977 28.1858 134.903 27.7296 134.907 27.2708C134.905 26.6698 135.046 26.077 135.317 25.5407C135.588 25.0047 135.967 24.5306 136.431 24.1486C136.932 23.7358 137.51 23.4268 138.131 23.2397C138.819 23.0279 139.536 22.9224 140.255 22.9269C140.977 22.9309 141.694 23.033 142.388 23.2304C143.079 23.4206 143.74 23.7065 144.352 24.0797C144.937 24.4342 145.461 24.8793 145.905 25.3984L144.557 26.8641C144.183 26.4721 143.771 26.1189 143.326 25.8098C142.887 25.5027 142.409 25.256 141.904 25.0762C140.988 24.7586 139.996 24.7281 139.062 24.9886C138.695 25.0896 138.348 25.2531 138.036 25.4719C137.763 25.6646 137.541 25.9213 137.39 26.2196C137.242 26.5203 137.167 26.8514 137.171 27.1863C137.166 27.4603 137.226 27.7315 137.346 27.9778C137.467 28.2164 137.637 28.4266 137.845 28.5941C138.198 28.8522 138.588 29.0548 139.003 29.1948C139.502 29.3804 140.123 29.5707 140.864 29.7657C141.608 29.9606 142.339 30.2009 143.054 30.4853C143.589 30.6938 144.089 30.9851 144.534 31.3487C145.022 31.6917 145.411 32.1566 145.663 32.6971C145.895 33.244 146.009 33.8333 145.999 34.4271C146.012 35.2468 145.76 36.0487 145.281 36.7141C144.772 37.4013 144.089 37.941 143.303 38.2783C142.395 38.6736 141.414 38.8684 140.424 38.8492Z" fill="#D9B76F"/>
<path d="M15.3268 4.77246C13.1844 4.77166 11.0939 5.43156 9.34033 6.6622C7.58671 7.89284 6.25527 9.63434 5.52752 11.6493C4.79976 13.6643 4.71111 15.8546 5.27365 17.9218C5.83618 19.989 7.02252 21.8324 8.67096 23.2007L14.1802 13.2271L12.8803 12.5311L15.5911 10.8511L18.3004 9.17109L18.4005 12.3574L18.5006 15.5453L17.2023 14.8477L11.6336 24.9307C13.0611 25.4709 14.5899 25.6908 16.1118 25.5748C17.6337 25.4588 19.1115 25.0097 20.4407 24.2594C21.7698 23.5091 22.9179 22.4758 23.8035 21.2327C24.6891 19.9896 25.2908 18.5671 25.5658 17.0658C25.8409 15.5645 25.7826 14.021 25.3952 12.5447C25.0078 11.0684 24.3006 9.69525 23.3238 8.52245C22.347 7.34965 21.1244 6.40586 19.7425 5.75784C18.3605 5.10983 16.8531 4.77344 15.3268 4.77246Z" fill="#D9B76F"/>
<path d="M46.4358 11.3423H41.7884L43.7218 19.3418H44.3319C44.3319 19.3418 44.4742 20.9389 42.8787 22.1574C42.3319 22.499 41.7003 22.68 41.0556 22.68C40.4109 22.68 39.7792 22.499 39.2325 22.1574C39.2325 22.1574 37.7355 21.1094 37.7637 19.3418H38.3894L40.2492 11.3423H39.8988C39.8988 11.3423 36.6484 10.8543 36.7704 7.68515H38.3972C38.3972 7.68515 37.9091 9.67642 41.0783 9.79843H46.4326V5.86751C44.8446 5.06353 43.0771 4.6799 41.2987 4.75323C39.5202 4.82655 37.7903 5.35438 36.2738 6.28636C34.7574 7.21833 33.5051 8.52335 32.6364 10.0769C31.7676 11.6304 31.3115 13.3807 31.3115 15.1606C31.3115 16.9406 31.7676 18.6908 32.6364 20.2443C33.5051 21.7979 34.7574 23.1029 36.2738 24.0349C37.7903 24.9669 39.5202 25.4947 41.2987 25.568C43.0771 25.6413 44.8446 25.2577 46.4326 24.4537L46.4358 11.3423Z" fill="#F7F7F7"/>
<path d="M48.252 7.02954V23.2757C49.469 22.3003 50.4513 21.0639 51.1262 19.6579C51.8012 18.2519 52.1517 16.7122 52.1517 15.1526C52.1517 13.593 51.8012 12.0533 51.1262 10.6473C50.4513 9.24128 49.469 8.00491 48.252 7.02954Z" fill="#F7F7F7"/>
<path d="M39.1465 19.345H42.971L41.0376 11.3455H40.9985L39.1465 19.345Z" fill="#F7F7F7"/>
<path d="M15.3261 30.7029C13.0977 30.7031 10.9282 31.418 9.13616 32.7425C7.34414 34.067 6.02412 35.9313 5.37 38.0615C4.71588 40.1917 4.76216 42.4756 5.50203 44.5775C6.2419 46.6795 7.63637 48.4888 9.48057 49.7396V41.263H12.5042V51.1443C12.9317 51.2645 13.3664 51.3575 13.8057 51.4227V38.4709H16.8293V51.4243C17.2746 51.3602 17.7151 51.2667 18.148 51.1443V35.9118H21.1717V49.7396C23.0159 48.4888 24.4103 46.6795 25.1502 44.5775C25.8901 42.4756 25.9364 40.1917 25.2822 38.0615C24.6281 35.9313 23.3081 34.067 21.5161 32.7425C19.724 31.418 17.5545 30.7031 15.3261 30.7029Z" fill="#F7F7F7"/>
<path d="M39.2498 47.6013H39.0933C38.7599 47.5906 38.4434 47.4524 38.2088 47.2152C37.9743 46.978 37.8396 46.6599 37.8326 46.3265C37.8247 44.781 37.8326 43.2355 37.8326 41.6901C37.8285 41.6264 37.843 41.5629 37.8744 41.5073C37.9058 41.4518 37.9527 41.4066 38.0093 41.3772C38.066 41.3445 38.1315 41.3304 38.1966 41.3369C38.2617 41.3433 38.3231 41.37 38.3722 41.4132C38.6305 41.5953 38.9418 41.6872 39.2576 41.6744C40.9157 41.6744 42.5738 41.6744 44.2334 41.6744H44.4258C44.4258 41.9951 44.4258 42.2923 44.4258 42.5911C44.4258 42.8898 44.5494 42.9946 44.8309 42.9962H46.6079C46.9646 42.9962 47.0678 42.893 47.0678 42.5379C47.0678 42.2548 47.0678 41.9732 47.0678 41.6744H47.268C48.8917 41.6744 50.5159 41.6744 52.1406 41.6744C52.15 41.493 52.1563 41.31 52.1563 41.1254C52.1563 41.0878 52.1563 41.0519 52.1563 41.0159H47.0631C47.0631 40.9048 47.0631 40.8125 47.0631 40.7202C47.0679 40.6709 47.0616 40.6211 47.0446 40.5746C47.0276 40.528 47.0004 40.4859 46.965 40.4512C46.9296 40.4166 46.8869 40.3903 46.84 40.3743C46.793 40.3583 46.7432 40.3531 46.6939 40.3589H44.7934C44.7429 40.3525 44.6915 40.3578 44.6433 40.3743C44.5951 40.3908 44.5513 40.4182 44.5154 40.4543C44.4794 40.4904 44.4522 40.5343 44.4359 40.5826C44.4195 40.6309 44.4145 40.6822 44.4211 40.7328C44.4211 40.8235 44.4211 40.9142 44.4211 41.0159H44.296C42.5847 41.0159 40.8745 41.0159 39.1653 41.0159C38.9882 41.0191 38.8123 40.9864 38.6481 40.9199C38.484 40.8533 38.335 40.7541 38.2102 40.6285C38.0853 40.5028 37.9873 40.3531 37.9218 40.1885C37.8564 40.0239 37.825 39.8477 37.8294 39.6706C37.8294 39.0575 37.8466 38.4427 37.8294 37.8311C37.8191 37.6407 37.8489 37.4502 37.9169 37.2721C37.9848 37.0939 38.0894 36.932 38.2239 36.7968C38.3583 36.6616 38.5197 36.5561 38.6975 36.4872C38.8753 36.4183 39.0656 36.3874 39.256 36.3967C40.254 36.4217 41.2551 36.3967 42.2531 36.3967H42.4471C42.4471 36.1855 42.4471 35.9963 42.4471 35.8054C42.4471 34.9779 43.007 34.4195 43.8345 34.4179C45.1109 34.4179 46.3884 34.4179 47.6669 34.4179C47.7717 34.4146 47.8765 34.422 47.9798 34.4398C48.2865 34.4985 48.5625 34.6639 48.759 34.9068C48.9554 35.1496 49.0595 35.4541 49.0528 35.7663C49.0528 35.9697 49.0528 36.1746 49.0528 36.392H51.0206C50.0003 34.3862 48.3579 32.7648 46.3391 31.7705C44.3203 30.7762 42.0338 30.4623 39.8218 30.876C37.6098 31.2897 35.5912 32.4086 34.0683 34.0653C32.5453 35.722 31.5997 37.8273 31.3732 40.0663C31.1467 42.3052 31.6514 44.5573 32.8117 46.4854C33.972 48.4136 35.7255 49.9141 37.8099 50.7625C39.8942 51.6108 42.1972 51.7613 44.3742 51.1915C46.5512 50.6216 48.4852 49.3621 49.8866 47.6013H39.2498Z" fill="#D9B76F"/>
<path d="M43.7734 36.3826H47.72V35.7444H43.7734V36.3826Z" fill="#D9B76F"/>
<path d="M44.7825 56.2686H12.2824C9.02602 56.2649 5.90412 54.9697 3.60154 52.6671C1.29895 50.3645 0.00372603 47.2426 0 43.9863V12.2808C0.00413993 9.02473 1.29955 5.90323 3.60209 3.60098C5.90463 1.29874 9.0263 0.00372522 12.2824 0H44.7825C48.0387 0.00331207 51.1606 1.29819 53.4632 3.60053C55.7658 5.90286 57.0611 9.02461 57.0648 12.2808V43.9863C57.0615 47.2427 55.7664 50.3649 53.4638 52.6676C51.1611 54.9702 48.0389 56.2653 44.7825 56.2686ZM12.2824 0.524019C9.165 0.52733 6.17622 1.76695 3.97162 3.97097C1.76701 6.17499 0.526595 9.16344 0.522454 12.2808V43.9863C0.525766 47.1043 1.76577 50.0937 3.97042 52.2987C6.17507 54.5036 9.16432 55.744 12.2824 55.7478H44.7825C47.9005 55.744 50.8898 54.5036 53.0944 52.2987C55.2991 50.0937 56.5391 47.1043 56.5424 43.9863V12.2808C56.5391 9.1629 55.299 6.17364 53.0943 3.96895C50.8896 1.76425 47.9004 0.524203 44.7825 0.52089L12.2824 0.524019Z" fill="#D9B76F"/>
</svg>
